<?xml version="1.0" standalone="no"?>
        <!DOCTYPE svg PUBLIC "-//W3C//DTD SVG 1.1//EN" 
        "http://www.w3.org/Graphics/SVG/1.1/DTD/svg11.dtd"> <svg xmlns="http://www.w3.org/2000/svg" viewBox="0 0 512 512" id="IconChangeColor" height="24" width="24"> <path fill="#ffffff" d="M352,153H40.247a24.028,24.028,0,0,0-24,24V458a24.028,24.028,0,0,0,24,24H352a24.028,24.028,0,0,0,24-24V177A24.028,24.028,0,0,0,352,153Zm-8,32v45.22H48.247V185ZM48.247,450V262.22H344V450Z" class="ci-primary" id="mainIconPathAttribute" stroke-width="0" stroke="#ff0000"></path> <path fill="#ffffff" d="M472,32H152a24.028,24.028,0,0,0-24,24v65h32V64H464V339.143H408v32h64a24.028,24.028,0,0,0,24-24V56A24.028,24.028,0,0,0,472,32Z" class="ci-primary" id="mainIconPathAttribute" stroke="#ff0000"></path> </svg> 